<svg xmlns="http://www.w3.org/2000/svg" width="512" height="512" viewBox="0 0 512 512"><defs><linearGradient id="icon-studio-bg" x1="0.146" y1="0.854" x2="0.854" y2="0.146"><stop offset="0" stop-color="#2193B0"/><stop offset="1" stop-color="#6DD5ED"/></linearGradient></defs><rect width="512" height="512" fill="url(#icon-studio-bg)"/><g transform="translate(115.2 115.2) scale(11.733)" fill="none" stroke="#FFFFFF" stroke-width="2" stroke-linecap="round" stroke-linejoin="round"><path d="M13.997 4a2 2 0 0 1 1.76 1.05l.486.9A2 2 0 0 0 18.003 7H20a2 2 0 0 1 2 2v9a2 2 0 0 1-2 2H4a2 2 0 0 1-2-2V9a2 2 0 0 1 2-2h1.997a2 2 0 0 0 1.759-1.048l.489-.904A2 2 0 0 1 10.004 4z"/><circle cx="12" cy="13" r="3"/></g></svg>
